<svg xmlns="http://www.w3.org/2000/svg" viewBox="0 0 423.28 363.59"><defs><style>.cls-1{fill:#f9b233;}.cls-2{fill:#1d1d1b;}</style></defs><g id="Calque_4" data-name="Calque 4"><path d="M239.46,142.48l-.82.42" transform="translate(-41.36 -77.2)"/></g><g id="Calque_7" data-name="Calque 7"><line x1="94.26" y1="122.79" x2="164.37" y2="363.17"/><path d="M137.06,199.56c5.52,9.26,10.33,18.73,15,28.24,2.36,4.74,4.53,9.55,6.77,14.33s4.33,9.6,6.38,14.44c8.3,19.31,15.79,38.86,22.68,58.59q5.19,14.79,9.89,29.72c3.12,9.95,6.23,19.92,9,30a143.81,143.81,0,0,1,4.57,31.27,118.92,118.92,0,0,1-.58,16.47c-.3,2.81-.69,5.64-1.27,8.53a64.31,64.31,0,0,1-2.28,8.81l-2.88.84a63.17,63.17,0,0,1-6.65-6.21c-2-2.12-3.9-4.3-5.66-6.5a120.72,120.72,0,0,1-9.35-13.57,144,144,0,0,1-12.95-28.83c-3.1-10-5.84-20-8.56-30.11s-5.25-20.2-7.64-30.37c-4.79-20.34-9-40.85-12.38-61.6-.86-5.18-1.58-10.4-2.38-15.61s-1.43-10.45-2-15.71c-1.19-10.52-2.21-21.09-2.54-31.87Z" transform="translate(-41.36 -77.2)"/><line x1="329.02" y1="124.29" x2="249.35" y2="361.67"/><path d="M371.8,202c-.76,10.75-2.2,21.27-3.81,31.73-.78,5.25-1.74,10.43-2.63,15.63s-1.93,10.36-3,15.5c-4.21,20.6-9.23,40.92-14.83,61.05q-4.2,15.11-8.86,30.05c-3.11,10-6.25,19.91-9.75,29.74a143.22,143.22,0,0,1-14.09,28.28A119.85,119.85,0,0,1,305,427.13c-1.86,2.13-3.79,4.24-5.92,6.27a63.66,63.66,0,0,1-6.9,5.94l-2.84-.95a65,65,0,0,1-1.92-8.9c-.47-2.91-.74-5.75-.93-8.57a119.08,119.08,0,0,1,.07-16.48,143.89,143.89,0,0,1,5.82-31.06c3.14-9.95,6.65-19.78,10.17-29.6s7.22-19.59,11.06-29.31c7.68-19.43,15.94-38.67,25-57.63,2.25-4.75,4.64-9.45,6.95-14.18s4.79-9.39,7.34-14c5-9.32,10.22-18.58,16.1-27.61Z" transform="translate(-41.36 -77.2)"/><path d="M464.64,193.27l-1,3.48a59.86,59.86,0,0,1-17.18,3.5,79.62,79.62,0,0,1-8.16.13c-2.66-.11-5.31-.32-7.92-.65a93.36,93.36,0,0,1-15.18-3.29c-4.94-1.45-9.64-3.52-14.39-5.42a507.57,507.57,0,0,1-55.34-27c-4.46-2.56-8.89-5.19-13.29-7.82s-8.68-5.56-13-8.37c-2.13-1.45-4.29-2.82-6.39-4.34L306.5,139l-6.21-4.61c-2.07-1.52-4.14-3-6.13-4.72-4-3.31-8-6.56-11.87-9.92s-7.61-7-11.32-10.57A145,145,0,0,1,260.23,98c-2.46-2.79-4.88-5.58-7.22-8.44-2.36,2.86-4.78,5.65-7.24,8.44A145,145,0,0,1,235,109.17c-3.71,3.56-7.38,7.26-11.31,10.57s-7.9,6.61-11.87,9.92c-2,1.67-4.06,3.2-6.13,4.72l-6.2,4.61-6.28,4.52c-2.1,1.52-4.26,2.89-6.39,4.34-4.31,2.81-8.62,5.64-13,8.37s-8.83,5.26-13.3,7.82a504.76,504.76,0,0,1-55.33,27c-4.76,1.9-9.46,4-14.4,5.42a93.36,93.36,0,0,1-15.18,3.29c-2.61.33-5.24.54-7.92.65a79.75,79.75,0,0,1-8.16-.13,59.93,59.93,0,0,1-17.18-3.5l-1-3.48A76.17,76.17,0,0,1,52.81,180.4c2-1.82,4-3.49,6.06-5.07s4.13-3.08,6.24-4.46a108.75,108.75,0,0,1,13-7.32c2.23-1,4.47-2.06,6.74-3l6.84-2.73Q119,146.8,146,135.06c4.46-2,9-4,13.5-5.92L172.94,123c2.25-1,4.55-1.94,6.75-3l6.66-3.19,6.72-3.11,3.37-1.56c1.13-.51,2.21-1.1,3.31-1.65,17.47-8.24,34.44-17.34,52.25-26.34l1-.51c.32.17.66.33,1,.49,17.81,9,34.79,18.12,52.25,26.36,1.12.55,2.18,1.14,3.31,1.65l3.37,1.56,6.73,3.11,6.65,3.19c2.21,1.08,4.51,2,6.75,3l13.42,6.12c4.51,2,9,3.9,13.51,5.92q27,11.7,54.32,22.77l6.85,2.73c2.26.93,4.51,1.95,6.74,3a108.75,108.75,0,0,1,13,7.32q3.15,2.07,6.23,4.46c2.06,1.58,4.09,3.25,6.07,5.07A76.13,76.13,0,0,1,464.64,193.27Z" transform="translate(-41.36 -77.2)"/><path class="cls-1" d="M245.9,185.44c.17,4.5.37,9,.61,13.48Q247,209,247.68,219l.61,9.68c-9.25-.16-18.48-.27-27.73-.25l0-.26a162.37,162.37,0,0,0-5-28.86,117.64,117.64,0,0,0-4.94-13.93c-.51-1.13-1-2.27-1.51-3.39l-.38-.83a4,4,0,0,0-.38-.73c-.24-.35-.53-.71-.81-1.08-.86-1.06-2-2.33-3.1-3.95l.28.16c.88.46,1.77.92,2.68,1.32,1.79.83,3.61,1.58,5.44,2.24A88.94,88.94,0,0,0,224,182.52,114.62,114.62,0,0,0,245.9,185.44Z" transform="translate(-41.36 -77.2)"/><path class="cls-1" d="M289.38,178.5a89.06,89.06,0,0,0-8.09,23.58,115.87,115.87,0,0,0-2,27.49q-13.4-.52-26.78-.78H252l-.57-10q-.56-10.08-1.23-20.14-.45-6.57-1-13.14a120.89,120.89,0,0,0,21-1.47,91.48,91.48,0,0,0,11.48-2.7A55.44,55.44,0,0,0,289.38,178.5Z" transform="translate(-41.36 -77.2)"/><path class="cls-1" d="M248.6,233.61l.34,5.55c.78,12.33,1.67,24.65,2.57,37-2.67.06-5.32.2-8,.39-3.46.35-6.91.75-10.32,1.43a88.91,88.91,0,0,0-10.17,2.54,66.44,66.44,0,0,0-7.59,2.91,101.8,101.8,0,0,0,2.92-11.62,144.49,144.49,0,0,0,2-14.46,167.73,167.73,0,0,0,.43-24.66C230.09,233.07,239.33,233.37,248.6,233.61Z" transform="translate(-41.36 -77.2)"/><path class="cls-1" d="M292.2,282.44c-.59-.27-1.19-.55-1.79-.81-1.69-.62-3.38-1.2-5.11-1.74a80.45,80.45,0,0,0-10.41-2.32,120.29,120.29,0,0,0-20.43-1.48c-.56-12.38-1.15-24.77-1.85-37.14l-.3-5.24h.12q13.57.33,27.17.4a142.73,142.73,0,0,0,4.27,24.94A140,140,0,0,0,292.2,282.44Z" transform="translate(-41.36 -77.2)"/><path class="cls-2" d="M292.18,174.33c-7.79-1-15.13-1.38-22.52-2s-14.47-1-21.7-1.51l-.32,0-2.19-.13c-6.63-.43-13.26-.72-20-.71-3.73,0-7.5.12-11.31.31-1.9.12-3.81.26-5.73.44-1,.12-1.93.2-2.91.33l-1.47.21-.72.11a7.14,7.14,0,0,0-1,.07,2.49,2.49,0,0,0-1,.49c.07,2-.1,4.76.25,7.85.08.77.18,1.55.3,2.31a5.12,5.12,0,0,1,.11,1l.07.89c.08,1.19.2,2.36.31,3.53.53,4.65.76,9.36,1.26,14l2.07,27,.05.79c.07.86.12,1.72.18,2.58.58,8.44,1.26,16.9,2.11,25.41.94,9.38,2,18.83,3.93,28.44h0l1.45,1.4a69.81,69.81,0,0,0,10.46,2c3.45.43,6.86.67,10.26.81s6.78.13,10.15.06c2.74-.06,5.48-.23,8.21-.36l1.87-.09.74,0c6.46-.37,12.91-.88,19.34-1.39,6.69-.52,13.32-1.17,20.25-1.59l1.22-.36.35-1.26c-.62-9.44-1.82-18.59-2.84-27.69-.88-7.77-1.68-15.47-2.2-23.14-.11-1.3-.18-2.6-.26-3.9v-.13a246.28,246.28,0,0,1-.12-26.76c.45-9,1.54-18,2.85-27.26M215.46,283.39a101.8,101.8,0,0,0,2.92-11.62,144.49,144.49,0,0,0,2-14.46,167.73,167.73,0,0,0,.43-24.66c9.25.42,18.49.72,27.76,1l.34,5.55c.78,12.33,1.67,24.65,2.57,37-2.67.06-5.32.2-8,.39-3.46.35-6.91.75-10.32,1.43a88.91,88.91,0,0,0-10.17,2.54,66.44,66.44,0,0,0-7.59,2.91M204.4,175.44l.28.16c.88.46,1.77.92,2.68,1.32,1.79.83,3.61,1.58,5.44,2.24A88.94,88.94,0,0,0,224,182.52a114.62,114.62,0,0,0,21.93,2.92c.17,4.5.37,9,.61,13.48Q247,209,247.68,219l.61,9.68c-9.25-.16-18.48-.27-27.73-.25l0-.26a162.37,162.37,0,0,0-5-28.86,117.64,117.64,0,0,0-4.94-13.93c-.51-1.13-1-2.27-1.51-3.39l-.38-.83a4,4,0,0,0-.38-.73c-.24-.35-.53-.71-.81-1.08-.86-1.06-2-2.33-3.1-3.95m87.8,107c-.59-.27-1.19-.55-1.79-.81-1.69-.62-3.38-1.2-5.11-1.74a80.45,80.45,0,0,0-10.41-2.32,120.29,120.29,0,0,0-20.43-1.48c-.56-12.38-1.15-24.77-1.85-37.14l-.3-5.24h.12q13.57.33,27.17.4a142.73,142.73,0,0,0,4.27,24.94,140,140,0,0,0,8.33,23.39M289.38,178.5a89.06,89.06,0,0,0-8.09,23.58,115.87,115.87,0,0,0-2,27.49q-13.4-.52-26.78-.78H252l-.57-10q-.56-10.08-1.23-20.14-.45-6.57-1-13.14a120.89,120.89,0,0,0,21-1.47,91.48,91.48,0,0,0,11.48-2.7,55.44,55.44,0,0,0,7.67-2.87" transform="translate(-41.36 -77.2)"/><path d="M145.49,148.48a19.73,19.73,0,0,1-4.71-3.11,52.75,52.75,0,0,1-4.72-4.57,82.92,82.92,0,0,1-8.8-11.89,113.22,113.22,0,0,1-7.39-13.63c-1.06-2.35-2-4.74-2.85-7.17a47.37,47.37,0,0,1-2-7.39l-.06-.36.18-.3a43.37,43.37,0,0,1,6.06-7.63,71.33,71.33,0,0,1,7.08-6.3,57.22,57.22,0,0,1,7.88-5.22,36,36,0,0,1,9.11-3.62l.42-.09.27.18A100.92,100.92,0,0,1,157.6,87c3.62,3.41,7,7,10.32,10.66,1.66,1.83,3.24,3.72,4.82,5.6s3.16,3.78,4.52,5.84a36.7,36.7,0,0,1,3.55,6.61,26.29,26.29,0,0,1,2,7.85l.05.63-.17.11C170.32,132.41,157.88,140.47,145.49,148.48Zm.21-1c12.16-8.06,24.27-16.07,36.44-24l-.11.73a26.32,26.32,0,0,1-7.21-3.7,37.35,37.35,0,0,1-5.66-4.93c-1.7-1.79-3.15-3.78-4.68-5.72s-3-3.92-4.39-5.94c-2.86-4-5.57-8.15-8.09-12.44A99.25,99.25,0,0,1,145.21,78l.69.09a35.92,35.92,0,0,1-6,7.77A55.93,55.93,0,0,1,132.75,92a67.91,67.91,0,0,1-8,5.09,43,43,0,0,1-9,3.75l.12-.66a53,53,0,0,1,5.56,4.49c1.69,1.54,3.23,3.11,4.68,4.72a76.25,76.25,0,0,1,7.68,10.13,77.25,77.25,0,0,1,6.26,11.88c.94,2.28,1.88,4.67,2.81,7.32S144.76,144.18,145.7,147.5Z" transform="translate(-41.36 -77.2)"/></g></svg>